<svg xmlns="http://www.w3.org/2000/svg" width="116.034" height="116.174" viewBox="0 0 116.034 116.174">
  <g id="Confirm-Tick" transform="translate(-0.45 -0.426)">
    <g id="correct">
      <path id="Shape" d="M34.5,55.1a4.1,4.1,0,0,0-5.8,5.8L47.6,79.8A4,4,0,0,0,50.5,81h.2a4.571,4.571,0,0,0,3-1.5L101,22.8a4.116,4.116,0,0,0-6.3-5.3L50.2,70.8Z" fill="#17ab13"/>
      <path id="Shape-2" data-name="Shape" d="M89.1,9.3a58.124,58.124,0,1,0,18.4,18.4,4.065,4.065,0,0,0-6.9,4.3A49.781,49.781,0,1,1,84.8,16.2a4.065,4.065,0,1,0,4.3-6.9Z" fill="#17ab13"/>
    </g>
  </g>
</svg>
