<?xml version="1.0" ?><!DOCTYPE svg  PUBLIC '-//W3C//DTD SVG 1.1//EN'  'http://www.w3.org/Graphics/SVG/1.1/DTD/svg11.dtd'><svg height="512px" style="enable-background:new 0 0 512 512;" version="1.1" viewBox="0 0 512 512" width="512px" xml:space="preserve" xmlns="http://www.w3.org/2000/svg" xmlns:xlink="http://www.w3.org/1999/xlink"><g id="_x31_71_x2C__Contacts_x2C__Mane_x2C__Twitter"><g id="XMLID_5025_"><g id="XMLID_6745_"><g><g><g><path d="M410,411.5v16H90v-16c0-88.37,71.63-160,160-160c44.18,0,84.18,17.91,113.14,46.86        C392.09,327.32,410,367.32,410,411.5z" style="fill:#C2E3F7;"/></g></g><g><circle cx="250" cy="167.5" r="83" style="fill:#FFFFFF;"/></g></g><g><g><g><path d="M410,437.5H90c-5.523,0-10-4.478-10-10v-16c0-93.738,76.262-170,170-170        c45.401,0,88.093,17.682,120.21,49.788C402.318,323.407,420,366.099,420,411.5v16C420,433.022,415.522,437.5,410,437.5z         M100,417.5h300v-6c0-40.061-15.603-77.729-43.933-106.069C327.729,277.103,290.061,261.5,250,261.5        c-82.71,0-150,67.29-150,150V417.5z" style="fill:#0B93E2;"/></g><g><path d="M250,260.5c-51.28,0-93-41.72-93-93s41.72-93,93-93s93,41.72,93,93S301.28,260.5,250,260.5z         M250,94.5c-40.252,0-73,32.748-73,73s32.748,73,73,73c40.252,0,73-32.748,73-73S290.252,94.5,250,94.5z" style="fill:#0B93E2;"/></g></g></g></g></g></g><g id="Layer_1"/></svg>