<svg id="iconfinder_1_Facebook_colored_svg_copy_5296499" xmlns="http://www.w3.org/2000/svg" width="200" height="200" viewBox="0 0 200 200">
  <path id="Path_20" data-name="Path 20" d="M200,100A100,100,0,1,0,84.375,198.785V128.906H58.984V100H84.375V77.969c0-25.062,14.929-38.906,37.771-38.906a153.776,153.776,0,0,1,22.385,1.953V65.625h-12.61c-12.422,0-16.3,7.708-16.3,15.616V100h27.734l-4.434,28.906h-23.3v69.879A100.025,100.025,0,0,0,200,100Z" fill="none"/>
  <path id="Path_21" data-name="Path 21" d="M230.941,189.844l4.434-28.906H207.641V142.179c0-7.908,3.874-15.616,16.3-15.616h12.61V101.953A153.783,153.783,0,0,0,214.162,100c-22.842,0-37.771,13.844-37.771,38.906v22.031H151v28.906h25.391v69.879a101.09,101.09,0,0,0,31.25,0V189.844Z" transform="translate(-92.016 -60.938)" fill="#fff"/>
</svg>
