<svg id="iconfinder_1_Instagram_colored_svg_1_5296765" xmlns="http://www.w3.org/2000/svg" width="199.999" height="199.999" viewBox="0 0 199.999 199.999">
  <path id="Path_22" data-name="Path 22" d="M100,0C72.841,0,69.436.115,58.77.6,48.126,1.087,40.857,2.778,34.5,5.25A49.013,49.013,0,0,0,16.784,16.784,49.013,49.013,0,0,0,5.25,34.5C2.777,40.857,1.087,48.126.6,58.77.115,69.436,0,72.841,0,100s.115,30.563.6,41.229c.486,10.644,2.176,17.913,4.648,24.274a49.022,49.022,0,0,0,11.534,17.712A49.017,49.017,0,0,0,34.5,194.75c6.361,2.472,13.63,4.163,24.274,4.648,10.666.486,14.071.6,41.23.6s30.563-.115,41.229-.6c10.644-.486,17.913-2.176,24.274-4.648A51.131,51.131,0,0,0,194.75,165.5c2.472-6.361,4.163-13.63,4.648-24.274.486-10.666.6-14.071.6-41.229s-.115-30.564-.6-41.23c-.486-10.644-2.176-17.913-4.648-24.274a49.017,49.017,0,0,0-11.534-17.712A49.023,49.023,0,0,0,165.5,5.25C159.143,2.778,151.873,1.087,141.229.6,130.563.115,127.158,0,100,0Zm0,18.018c26.7,0,29.864.1,40.408.583,9.75.445,15.045,2.074,18.568,3.443a30.984,30.984,0,0,1,11.5,7.48,30.983,30.983,0,0,1,7.48,11.5c1.37,3.524,3,8.819,3.443,18.568.481,10.545.583,13.708.583,40.409s-.1,29.864-.583,40.408c-.445,9.75-2.074,15.045-3.443,18.568a33.117,33.117,0,0,1-18.979,18.979c-3.524,1.37-8.819,3-18.568,3.443-10.543.481-13.705.583-40.408.583s-29.865-.1-40.409-.583c-9.75-.445-15.045-2.073-18.568-3.443a30.984,30.984,0,0,1-11.5-7.48,30.979,30.979,0,0,1-7.48-11.5c-1.37-3.524-3-8.819-3.443-18.568-.481-10.545-.583-13.707-.583-40.408s.1-29.864.583-40.409c.445-9.75,2.074-15.045,3.443-18.568a30.982,30.982,0,0,1,7.48-11.5,30.989,30.989,0,0,1,11.5-7.48c3.524-1.369,8.819-3,18.568-3.443C70.136,18.12,73.3,18.018,100,18.018Z" transform="translate(0 0)" fill="#fff"/>
  <path id="Path_23" data-name="Path 23" d="M175.892,209.224a33.333,33.333,0,1,1,33.333-33.333A33.333,33.333,0,0,1,175.892,209.224Zm0-84.684a51.351,51.351,0,1,0,51.351,51.352A51.351,51.351,0,0,0,175.892,124.54Z" transform="translate(-75.892 -75.892)" fill="#fff"/>
  <path id="Path_24" data-name="Path 24" d="M385.932,100.627a12,12,0,1,1-12-12A12,12,0,0,1,385.932,100.627Z" transform="translate(-220.552 -54.007)" fill="#fff"/>
</svg>
