<svg id="iconfinder_1_Twitter_colored_svg_5296514" xmlns="http://www.w3.org/2000/svg" width="200" height="162.51" viewBox="0 0 200 162.51">
  <rect id="Rectangle_15" data-name="Rectangle 15" width="156.25" height="156.25" transform="translate(21.875 3.13)" fill="none"/>
  <path id="Path_25" data-name="Path 25" d="M62.9,210.5c75.472,0,116.752-62.528,116.752-116.752,0-1.776,0-3.544-.12-5.3A83.491,83.491,0,0,0,200,67.2a81.916,81.916,0,0,1-23.568,6.456,41.182,41.182,0,0,0,18.04-22.7,82.245,82.245,0,0,1-26.056,9.96A41.072,41.072,0,0,0,98.488,98.345,116.55,116.55,0,0,1,13.92,55.473a41.234,41.234,0,0,0,12.7,54.776A40.726,40.726,0,0,1,8,105.113v.52a41.169,41.169,0,0,0,32.92,40.224,40.976,40.976,0,0,1-18.528.7,41.164,41.164,0,0,0,38.336,28.5,82.356,82.356,0,0,1-50.96,17.6A83.471,83.471,0,0,1,0,192.065a116.18,116.18,0,0,0,62.9,18.4" transform="translate(0 -47.987)" fill="#fff"/>
</svg>
