<svg xmlns="http://www.w3.org/2000/svg" width="208" height="148" viewBox="0 0 208 148">
  <g id="iconfinder_1_Youtube_colored_svg_5296521" transform="translate(4 4)">
    <path id="Path_26" data-name="Path 26" d="M195.82,98.662a25.044,25.044,0,0,0-17.681-17.681C162.54,76.8,100,76.8,100,76.8s-62.541,0-78.14,4.18A25.047,25.047,0,0,0,4.178,98.662C0,114.259,0,146.8,0,146.8s0,32.542,4.178,48.137a25.049,25.049,0,0,0,17.681,17.683C37.458,216.8,100,216.8,100,216.8s62.541,0,78.139-4.178a25.046,25.046,0,0,0,17.681-17.683C200,179.344,200,146.8,200,146.8S200,114.259,195.82,98.662Z" transform="translate(0 -76.801)" fill="none" stroke="#fff" stroke-width="8"/>
    <path id="Path_27" data-name="Path 27" d="M204.8,239.2l51.96-30-51.96-30v60Z" transform="translate(-124.798 -139.201)" fill="#fff"/>
  </g>
</svg>
